<svg width="28" height="28" viewBox="0 0 28 28" fill="none" xmlns="http://www.w3.org/2000/svg">
<path fill-rule="evenodd" clip-rule="evenodd" d="M2.80003 5.60001C2.5525 5.60001 2.3151 5.69834 2.14007 5.87337C1.96503 6.04841 1.8667 6.2858 1.8667 6.53334C1.8667 6.78087 1.96503 7.01827 2.14007 7.19331C2.3151 7.36834 2.5525 7.46667 2.80003 7.46667H25.2C25.4476 7.46667 25.685 7.36834 25.86 7.19331C26.035 7.01827 26.1334 6.78087 26.1334 6.53334C26.1334 6.2858 26.035 6.04841 25.86 5.87337C25.685 5.69834 25.4476 5.60001 25.2 5.60001H2.80003ZM1.8667 14C1.8667 13.7525 1.96503 13.5151 2.14007 13.34C2.3151 13.165 2.5525 13.0667 2.80003 13.0667H25.2C25.4476 13.0667 25.685 13.165 25.86 13.34C26.035 13.5151 26.1334 13.7525 26.1334 14C26.1334 14.2475 26.035 14.4849 25.86 14.66C25.685 14.835 25.4476 14.9333 25.2 14.9333H2.80003C2.5525 14.9333 2.3151 14.835 2.14007 14.66C1.96503 14.4849 1.8667 14.2475 1.8667 14ZM1.8667 21.4667C1.8667 21.2191 1.96503 20.9817 2.14007 20.8067C2.3151 20.6317 2.5525 20.5333 2.80003 20.5333H25.2C25.4476 20.5333 25.685 20.6317 25.86 20.8067C26.035 20.9817 26.1334 21.2191 26.1334 21.4667C26.1334 21.7142 26.035 21.9516 25.86 22.1266C25.685 22.3017 25.4476 22.4 25.2 22.4H2.80003C2.5525 22.4 2.3151 22.3017 2.14007 22.1266C1.96503 21.9516 1.8667 21.7142 1.8667 21.4667Z" fill="black"/>
</svg>
