<svg width="665" height="184" viewBox="0 0 665 184" fill="none" xmlns="http://www.w3.org/2000/svg">
<path d="M160.148 160.954C157.491 156.231 154.648 152.379 154.44 152.095C152.295 153.11 150.412 154.607 148.94 156.469C147.468 158.331 146.447 160.508 145.955 162.83C146.358 162.838 152.767 162.915 160.148 160.954ZM162.061 166.119C162.262 166.055 162.464 165.994 162.666 165.935C162.275 165.053 161.86 164.181 161.42 163.322C153.503 165.693 145.908 165.521 145.639 165.513C145.634 165.677 145.626 165.838 145.626 166.002C145.626 169.952 147.119 173.556 149.57 176.278L149.561 176.266C149.561 176.266 153.767 168.804 162.061 166.119ZM151.55 178.119V178.111C151.437 178.023 151.316 177.943 151.202 177.847C151.41 178.013 151.55 178.119 151.55 178.119ZM157.317 151.076C157.307 151.078 157.297 151.081 157.287 151.083C157.299 151.08 157.315 151.08 157.315 151.08L157.317 151.076ZM171.152 154.464C168.349 151.989 164.738 150.625 160.999 150.628C159.749 150.628 158.538 150.78 157.375 151.06C157.61 151.373 160.496 155.206 163.124 160.029C168.919 157.859 171.109 154.527 171.152 154.464ZM160.999 184C156.226 183.999 151.648 182.103 148.272 178.728C144.897 175.353 143.001 170.775 143 166.002C142.999 163.638 143.465 161.297 144.369 159.113C145.273 156.929 146.599 154.945 148.27 153.273C149.942 151.601 151.926 150.275 154.11 149.37C156.294 148.466 158.635 148 160.999 148C163.363 148 165.704 148.466 167.888 149.37C170.072 150.275 172.057 151.601 173.728 153.273C175.4 154.944 176.726 156.929 177.63 159.113C178.535 161.297 179 163.638 179 166.002C178.999 170.776 177.103 175.353 173.727 178.729C170.351 182.104 165.773 184 160.999 184ZM163.613 168.516C154.591 171.66 151.611 177.982 151.55 178.111C154.246 180.224 157.572 181.372 160.997 181.37C163.059 181.373 165.1 180.96 166.998 180.155C166.771 178.807 165.877 174.098 163.713 168.481C163.68 168.493 163.647 168.505 163.613 168.516ZM164.306 162.322C164.666 163.052 165.006 163.797 165.329 164.55C165.444 164.814 165.552 165.082 165.662 165.345C170.97 164.675 176.198 165.81 176.37 165.845C176.338 162.336 175.104 158.944 172.874 156.235C172.839 156.28 170.371 159.841 164.306 162.322ZM166.597 167.771C168.614 173.319 169.432 177.831 169.589 178.749C171.334 177.572 172.819 176.05 173.953 174.277C175.086 172.503 175.843 170.516 176.177 168.438C175.871 168.34 171.567 166.976 166.597 167.771Z" fill="#F88B78"/>
<path d="M26.2217 169.021C24.817 169.021 23.6783 170.883 23.6783 173.172C23.6783 175.466 24.817 177.328 26.2217 177.328C27.6265 177.328 28.7652 175.466 28.7652 173.172C28.7633 170.883 27.6265 169.021 26.2217 169.021ZM35.077 158.214C35.3685 157.372 35.3802 152.585 33.8346 148C33.8346 148 30.2913 148.459 24.9304 152.8C23.8054 152.431 21.9017 152.251 20.002 152.251C18.0983 152.251 16.1965 152.431 15.0715 152.8C9.70869 148.459 6.16543 148 6.16543 148C4.62174 152.585 4.63739 157.372 4.925 158.214C3.10935 160.54 2 163.335 2 167.147C2 183.73 13.6667 183.995 16.6093 183.995L20.002 184L23.3906 183.995C26.3372 183.995 38 183.73 38 167.147C38 163.335 36.8926 160.54 35.077 158.214ZM20.0548 181.958H19.9452C12.5672 181.958 6.81891 180.922 6.81891 172.462C6.81891 170.433 7.42543 168.555 8.86739 166.995C11.268 164.394 15.3337 165.769 19.9452 165.769H20.0548C24.6663 165.769 28.7339 164.394 31.1365 166.995C32.5746 168.555 33.1811 170.433 33.1811 172.462C33.1811 180.922 27.4348 181.958 20.0548 181.958ZM13.7802 169.021C12.3754 169.021 11.2367 170.883 11.2367 173.172C11.2367 175.466 12.3754 177.328 13.7802 177.328C15.187 177.328 16.3257 175.466 16.3257 173.172C16.3257 170.883 15.187 169.021 13.7802 169.021Z" fill="#F88B78"/>
<path d="M81.3333 152.667C81.3333 154.614 80.0317 156.289 77.6648 156.289C75.4373 156.289 74 154.709 74 152.762C74 150.764 75.3933 149 77.6667 149C79.94 149 81.2893 150.668 81.3333 152.667ZM74 182V158.167H81.3333V182H74Z" fill="#66ADA8"/>
<path d="M85 166.314C85 163.481 84.9065 161.115 84.813 159.07H91.402L91.7283 162.229H91.8677C92.7953 160.742 95.0686 158.563 98.8746 158.563C103.517 158.563 107 161.67 107 168.356V182H99.6666V169.421C99.6666 166.499 98.5538 164.27 96 164.27C94.053 164.27 93.0777 165.846 92.5662 167.146C92.3792 167.612 92.3333 168.261 92.3333 168.912V182H85V166.314Z" fill="#66ADA8"/>
<path d="M23.5781 30.0547H10.0781V44H3.04688V9.875H25.2656V15.5703H10.0781V24.3828H23.5781V30.0547ZM44.2903 41.4219C42.6184 43.4531 40.3059 44.4688 37.3528 44.4688C34.6341 44.4688 32.5559 43.6875 31.1184 42.125C29.6966 40.5625 28.97 38.2734 28.9387 35.2578V18.6406H35.7122V35.0234C35.7122 37.6641 36.9153 38.9844 39.3216 38.9844C41.6184 38.9844 43.1966 38.1875 44.0559 36.5938V18.6406H50.8528V44H44.4778L44.2903 41.4219ZM63.8306 44H57.0337V8H63.8306V44ZM77.3006 44H70.5038V8H77.3006V44ZM114.436 35.0469C114.436 33.7188 113.967 32.7031 113.03 32C112.092 31.2812 110.405 30.5312 107.967 29.75C105.53 28.9531 103.6 28.1719 102.178 27.4062C98.3031 25.3125 96.3656 22.4922 96.3656 18.9453C96.3656 17.1016 96.8812 15.4609 97.9125 14.0234C98.9594 12.5703 100.452 11.4375 102.389 10.625C104.342 9.8125 106.53 9.40625 108.952 9.40625C111.389 9.40625 113.561 9.85156 115.467 10.7422C117.373 11.6172 118.85 12.8594 119.897 14.4688C120.959 16.0781 121.491 17.9062 121.491 19.9531H114.459C114.459 18.3906 113.967 17.1797 112.983 16.3203C111.998 15.4453 110.616 15.0078 108.834 15.0078C107.116 15.0078 105.78 15.375 104.827 16.1094C103.873 16.8281 103.397 17.7812 103.397 18.9688C103.397 20.0781 103.952 21.0078 105.061 21.7578C106.186 22.5078 107.834 23.2109 110.006 23.8672C114.006 25.0703 116.92 26.5625 118.748 28.3438C120.577 30.125 121.491 32.3438 121.491 35C121.491 37.9531 120.373 40.2734 118.139 41.9609C115.905 43.6328 112.897 44.4688 109.116 44.4688C106.491 44.4688 104.1 43.9922 101.944 43.0391C99.7875 42.0703 98.1391 40.75 96.9984 39.0781C95.8734 37.4062 95.3109 35.4688 95.3109 33.2656H102.366C102.366 37.0312 104.616 38.9141 109.116 38.9141C110.787 38.9141 112.092 38.5781 113.03 37.9062C113.967 37.2188 114.436 36.2656 114.436 35.0469ZM134.656 12.4062V18.6406H138.992V23.6094H134.656V36.2656C134.656 37.2031 134.836 37.875 135.195 38.2812C135.554 38.6875 136.242 38.8906 137.257 38.8906C138.007 38.8906 138.672 38.8359 139.25 38.7266V43.8594C137.922 44.2656 136.554 44.4688 135.148 44.4688C130.398 44.4688 127.976 42.0703 127.882 37.2734V23.6094H124.179V18.6406H127.882V12.4062H134.656ZM158.181 44C157.868 43.3906 157.642 42.6328 157.501 41.7266C155.86 43.5547 153.727 44.4688 151.102 44.4688C148.618 44.4688 146.556 43.75 144.915 42.3125C143.29 40.875 142.477 39.0625 142.477 36.875C142.477 34.1875 143.47 32.125 145.454 30.6875C147.454 29.25 150.337 28.5234 154.102 28.5078H157.22V27.0547C157.22 25.8828 156.915 24.9453 156.306 24.2422C155.712 23.5391 154.767 23.1875 153.47 23.1875C152.329 23.1875 151.431 23.4609 150.774 24.0078C150.134 24.5547 149.813 25.3047 149.813 26.2578H143.04C143.04 24.7891 143.493 23.4297 144.399 22.1797C145.306 20.9297 146.587 19.9531 148.243 19.25C149.899 18.5312 151.759 18.1719 153.821 18.1719C156.946 18.1719 159.423 18.9609 161.251 20.5391C163.095 22.1016 164.017 24.3047 164.017 27.1484V38.1406C164.032 40.5469 164.368 42.3672 165.024 43.6016V44H158.181ZM152.579 39.2891C153.579 39.2891 154.501 39.0703 155.345 38.6328C156.188 38.1797 156.813 37.5781 157.22 36.8281V32.4688H154.688C151.298 32.4688 149.493 33.6406 149.274 35.9844L149.251 36.3828C149.251 37.2266 149.548 37.9219 150.142 38.4688C150.735 39.0156 151.548 39.2891 152.579 39.2891ZM180.487 39.0078C181.737 39.0078 182.752 38.6641 183.533 37.9766C184.315 37.2891 184.721 36.375 184.752 35.2344H191.104C191.088 36.9531 190.619 38.5312 189.697 39.9688C188.776 41.3906 187.51 42.5 185.901 43.2969C184.307 44.0781 182.541 44.4688 180.604 44.4688C176.979 44.4688 174.119 43.3203 172.026 41.0234C169.932 38.7109 168.885 35.5234 168.885 31.4609V31.0156C168.885 27.1094 169.924 23.9922 172.002 21.6641C174.08 19.3359 176.932 18.1719 180.557 18.1719C183.729 18.1719 186.268 19.0781 188.174 20.8906C190.096 22.6875 191.072 25.0859 191.104 28.0859H184.752C184.721 26.7734 184.315 25.7109 183.533 24.8984C182.752 24.0703 181.721 23.6562 180.44 23.6562C178.862 23.6562 177.666 24.2344 176.854 25.3906C176.057 26.5312 175.658 28.3906 175.658 30.9688V31.6719C175.658 34.2812 176.057 36.1562 176.854 37.2969C177.651 38.4375 178.862 39.0078 180.487 39.0078ZM204.902 33.8281L202.464 36.2656V44H195.691V8H202.464V27.9453L203.777 26.2578L210.269 18.6406H218.402L209.238 29.2109L219.199 44H211.417L204.902 33.8281Z" fill="#F88B78"/>
<path d="M235.17 44V9.875H245.67C248.67 9.875 251.35 10.5547 253.709 11.9141C256.084 13.2578 257.936 15.1797 259.264 17.6797C260.592 20.1641 261.256 22.9922 261.256 26.1641V27.7344C261.256 30.9062 260.6 33.7266 259.287 36.1953C257.99 38.6641 256.154 40.5781 253.779 41.9375C251.404 43.2969 248.725 43.9844 245.74 44H235.17ZM242.201 15.5703V38.3516H245.6C248.35 38.3516 250.451 37.4531 251.904 35.6562C253.357 33.8594 254.1 31.2891 254.131 27.9453V26.1406C254.131 22.6719 253.412 20.0469 251.975 18.2656C250.537 16.4688 248.436 15.5703 245.67 15.5703H242.201ZM278.335 44.4688C274.617 44.4688 271.585 43.3281 269.242 41.0469C266.913 38.7656 265.749 35.7266 265.749 31.9297V31.2734C265.749 28.7266 266.242 26.4531 267.226 24.4531C268.21 22.4375 269.601 20.8906 271.398 19.8125C273.21 18.7188 275.273 18.1719 277.585 18.1719C281.054 18.1719 283.781 19.2656 285.765 21.4531C287.765 23.6406 288.765 26.7422 288.765 30.7578V33.5234H272.617C272.835 35.1797 273.492 36.5078 274.585 37.5078C275.695 38.5078 277.093 39.0078 278.781 39.0078C281.39 39.0078 283.429 38.0625 284.898 36.1719L288.226 39.8984C287.21 41.3359 285.835 42.4609 284.101 43.2734C282.367 44.0703 280.445 44.4688 278.335 44.4688ZM277.562 23.6562C276.218 23.6562 275.124 24.1094 274.281 25.0156C273.453 25.9219 272.921 27.2188 272.687 28.9062H282.109V28.3672C282.078 26.8672 281.671 25.7109 280.89 24.8984C280.109 24.0703 278.999 23.6562 277.562 23.6562ZM302.516 35.7266L307.227 18.6406H314.305L305.751 44H299.282L290.727 18.6406H297.805L302.516 35.7266ZM329.369 44.4688C325.65 44.4688 322.619 43.3281 320.275 41.0469C317.947 38.7656 316.783 35.7266 316.783 31.9297V31.2734C316.783 28.7266 317.275 26.4531 318.26 24.4531C319.244 22.4375 320.635 20.8906 322.432 19.8125C324.244 18.7188 326.307 18.1719 328.619 18.1719C332.088 18.1719 334.814 19.2656 336.799 21.4531C338.799 23.6406 339.799 26.7422 339.799 30.7578V33.5234H323.65C323.869 35.1797 324.525 36.5078 325.619 37.5078C326.728 38.5078 328.127 39.0078 329.814 39.0078C332.424 39.0078 334.463 38.0625 335.932 36.1719L339.26 39.8984C338.244 41.3359 336.869 42.4609 335.135 43.2734C333.4 44.0703 331.478 44.4688 329.369 44.4688ZM328.596 23.6562C327.252 23.6562 326.158 24.1094 325.314 25.0156C324.486 25.9219 323.955 27.2188 323.721 28.9062H333.142V28.3672C333.111 26.8672 332.705 25.7109 331.924 24.8984C331.142 24.0703 330.033 23.6562 328.596 23.6562ZM351.534 44H344.737V8H351.534V44ZM356.801 31.0859C356.801 28.5703 357.286 26.3281 358.254 24.3594C359.223 22.3906 360.614 20.8672 362.426 19.7891C364.254 18.7109 366.372 18.1719 368.778 18.1719C372.2 18.1719 374.989 19.2188 377.145 21.3125C379.317 23.4062 380.528 26.25 380.778 29.8438L380.825 31.5781C380.825 35.4688 379.739 38.5938 377.567 40.9531C375.395 43.2969 372.481 44.4688 368.825 44.4688C365.168 44.4688 362.247 43.2969 360.059 40.9531C357.887 38.6094 356.801 35.4219 356.801 31.3906V31.0859ZM363.575 31.5781C363.575 33.9844 364.028 35.8281 364.934 37.1094C365.84 38.375 367.137 39.0078 368.825 39.0078C370.465 39.0078 371.747 38.3828 372.668 37.1328C373.59 35.8672 374.051 33.8516 374.051 31.0859C374.051 28.7266 373.59 26.8984 372.668 25.6016C371.747 24.3047 370.45 23.6562 368.778 23.6562C367.122 23.6562 365.84 24.3047 364.934 25.6016C364.028 26.8828 363.575 28.875 363.575 31.5781ZM408.545 31.5547C408.545 35.4609 407.654 38.5938 405.873 40.9531C404.107 43.2969 401.717 44.4688 398.701 44.4688C396.138 44.4688 394.068 43.5781 392.49 41.7969V53.75H385.717V18.6406H391.998L392.232 21.125C393.873 19.1562 396.013 18.1719 398.654 18.1719C401.779 18.1719 404.209 19.3281 405.943 21.6406C407.677 23.9531 408.545 27.1406 408.545 31.2031V31.5547ZM401.771 31.0625C401.771 28.7031 401.349 26.8828 400.506 25.6016C399.677 24.3203 398.467 23.6797 396.873 23.6797C394.748 23.6797 393.287 24.4922 392.49 26.1172V36.5C393.318 38.1719 394.795 39.0078 396.92 39.0078C400.154 39.0078 401.771 36.3594 401.771 31.0625ZM425.155 44.4688C421.437 44.4688 418.405 43.3281 416.062 41.0469C413.733 38.7656 412.569 35.7266 412.569 31.9297V31.2734C412.569 28.7266 413.062 26.4531 414.046 24.4531C415.03 22.4375 416.421 20.8906 418.218 19.8125C420.03 18.7188 422.093 18.1719 424.405 18.1719C427.874 18.1719 430.601 19.2656 432.585 21.4531C434.585 23.6406 435.585 26.7422 435.585 30.7578V33.5234H419.437C419.655 35.1797 420.312 36.5078 421.405 37.5078C422.515 38.5078 423.913 39.0078 425.601 39.0078C428.21 39.0078 430.249 38.0625 431.718 36.1719L435.046 39.8984C434.03 41.3359 432.655 42.4609 430.921 43.2734C429.187 44.0703 427.265 44.4688 425.155 44.4688ZM424.382 23.6562C423.038 23.6562 421.944 24.1094 421.101 25.0156C420.272 25.9219 419.741 27.2188 419.507 28.9062H428.929V28.3672C428.897 26.8672 428.491 25.7109 427.71 24.8984C426.929 24.0703 425.819 23.6562 424.382 23.6562ZM454.422 24.9922C453.5 24.8672 452.688 24.8047 451.985 24.8047C449.422 24.8047 447.742 25.6719 446.946 27.4062V44H440.172V18.6406H446.571L446.758 21.6641C448.117 19.3359 450 18.1719 452.407 18.1719C453.157 18.1719 453.86 18.2734 454.516 18.4766L454.422 24.9922Z" fill="#66ADA8"/>
<path d="M6 97C216.673 97 281.78 97 288 97" stroke="#68B0AB" stroke-width="8" stroke-linecap="round"/>
</svg>
