<svg width="247" height="105" viewBox="0 0 247 105" fill="none" xmlns="http://www.w3.org/2000/svg">
<path d="M170.432 89.6361C168.661 86.4874 166.765 83.9191 166.627 83.73C165.196 84.4067 163.942 85.4047 162.96 86.6461C161.979 87.8876 161.298 89.3389 160.97 90.887C161.238 90.8922 165.512 90.943 170.432 89.6361ZM171.708 93.0796C171.841 93.0367 171.976 92.9959 172.111 92.957C171.85 92.3684 171.573 91.7873 171.28 91.2143C166.002 92.7952 160.938 92.6804 160.76 92.6752C160.756 92.7848 160.751 92.8917 160.751 93.0013C160.751 95.6348 161.746 98.0374 163.38 99.8517L163.374 99.8439C163.374 99.8439 166.178 94.8691 171.708 93.0796ZM164.7 101.079V101.074C164.625 101.015 164.544 100.962 164.468 100.898C164.606 101.009 164.7 101.079 164.7 101.079ZM168.544 83.0504C168.538 83.0523 168.531 83.054 168.525 83.0557C168.533 83.053 168.543 83.053 168.543 83.053L168.544 83.0504ZM177.768 85.3096C175.9 83.6596 173.492 82.7498 170.999 82.7517C170.166 82.7517 169.358 82.8535 168.584 83.04C168.74 83.2487 170.664 85.8039 172.416 89.0191C176.28 87.5726 177.739 85.3513 177.768 85.3096ZM170.999 105C167.817 105 164.765 103.735 162.515 101.485C160.265 99.2352 159 96.1834 159 93.0013C159 91.4254 159.31 89.8649 159.913 88.4088C160.516 86.9528 161.399 85.6297 162.514 84.5153C163.628 83.4008 164.951 82.5167 166.407 81.9136C167.863 81.3104 169.423 81 170.999 81C172.575 81 174.136 81.3104 175.592 81.9136C177.048 82.5167 178.371 83.4007 179.486 84.5152C180.6 85.6296 181.484 86.9526 182.087 88.4087C182.69 89.8648 183 91.4253 183 93.0013C183 96.1837 181.735 99.2356 179.485 101.486C177.234 103.736 174.182 105 170.999 105ZM172.742 94.6774C166.727 96.7735 164.741 100.988 164.7 101.074C166.497 102.483 168.715 103.248 170.998 103.247C172.373 103.249 173.733 102.973 174.999 102.437C174.847 101.538 174.251 98.3987 172.809 94.6539C172.787 94.6621 172.764 94.67 172.742 94.6774ZM173.204 90.5478C173.444 91.0343 173.671 91.5313 173.886 92.0335C173.963 92.2096 174.035 92.3883 174.108 92.563C177.647 92.117 181.132 92.8735 181.247 92.897C181.226 90.5576 180.403 88.2962 178.916 86.49C178.892 86.52 177.248 88.8939 173.204 90.5478ZM174.731 94.1804C176.076 97.8796 176.621 100.887 176.726 101.499C177.889 100.715 178.88 99.7003 179.635 98.5179C180.391 97.3355 180.895 96.0106 181.118 94.6252C180.914 94.56 178.045 93.6509 174.731 94.1804Z" fill="#F88B78"/>
<path d="M80.1478 95.0138C79.2113 95.0138 78.4522 96.2554 78.4522 97.7815C78.4522 99.3108 79.2113 100.552 80.1478 100.552C81.0843 100.552 81.8435 99.3108 81.8435 97.7815C81.8422 96.2554 81.0843 95.0138 80.1478 95.0138ZM86.0513 87.8092C86.2457 87.2477 86.2535 84.0569 85.223 81C85.223 81 82.8609 81.3062 79.287 84.2C78.537 83.9538 77.2678 83.8338 76.0013 83.8338C74.7322 83.8338 73.4643 83.9538 72.7143 84.2C69.1391 81.3062 66.777 81 66.777 81C65.7478 84.0569 65.7583 87.2477 65.95 87.8092C64.7396 89.36 64 91.2231 64 93.7646C64 104.82 71.7778 104.997 73.7396 104.997L76.0013 105L78.2604 104.997C80.2248 104.997 88 104.82 88 93.7646C88 91.2231 87.2617 89.36 86.0513 87.8092ZM76.0365 103.638H75.9635C71.0448 103.638 67.2126 102.948 67.2126 97.3077C67.2126 95.9554 67.617 94.7031 68.5783 93.6631C70.1787 91.9292 72.8891 92.8462 75.9635 92.8462H76.0365C79.1109 92.8462 81.8226 91.9292 83.4243 93.6631C84.383 94.7031 84.7874 95.9554 84.7874 97.3077C84.7874 102.948 80.9565 103.638 76.0365 103.638ZM71.8535 95.0138C70.917 95.0138 70.1578 96.2554 70.1578 97.7815C70.1578 99.3108 70.917 100.552 71.8535 100.552C72.7913 100.552 73.5504 99.3108 73.5504 97.7815C73.5504 96.2554 72.7913 95.0138 71.8535 95.0138Z" fill="#F88B78"/>
<path d="M117.333 83.6667C117.333 85.0827 116.387 86.3013 114.665 86.3013C113.045 86.3013 112 85.152 112 83.736C112 82.2827 113.013 81 114.667 81C116.32 81 117.301 82.2133 117.333 83.6667ZM112 105V87.6667H117.333V105H112Z" fill="#66ADA8"/>
<path d="M120 93.5919C120 91.5319 119.932 89.8106 119.864 88.3239H124.656L124.893 90.6213H124.994C125.669 89.5399 127.322 87.9546 130.09 87.9546C133.466 87.9546 136 90.2146 136 95.0773V105H130.666V95.8519C130.666 93.7266 129.857 92.1053 128 92.1053C126.584 92.1053 125.874 93.2519 125.502 94.1973C125.366 94.5359 125.333 95.0079 125.333 95.4813V105H120V93.5919Z" fill="#66ADA8"/>
<path d="M21.5136 15.0273H14.7636V22H11.248V4.9375H22.3573V7.78516H14.7636V12.1914H21.5136V15.0273ZM31.8697 20.7109C31.0338 21.7266 29.8775 22.2344 28.4009 22.2344C27.0416 22.2344 26.0025 21.8438 25.2838 21.0625C24.5728 20.2812 24.2095 19.1367 24.1939 17.6289V9.32031H27.5806V17.5117C27.5806 18.832 28.1822 19.4922 29.3853 19.4922C30.5338 19.4922 31.3228 19.0938 31.7525 18.2969V9.32031H35.1509V22H31.9634L31.8697 20.7109ZM41.6398 22H38.2414V4H41.6398V22ZM48.3748 22H44.9764V4H48.3748V22ZM66.9425 17.5234C66.9425 16.8594 66.7081 16.3516 66.2394 16C65.7706 15.6406 64.9269 15.2656 63.7081 14.875C62.4894 14.4766 61.5245 14.0859 60.8136 13.7031C58.8761 12.6562 57.9073 11.2461 57.9073 9.47266C57.9073 8.55078 58.1652 7.73047 58.6808 7.01172C59.2042 6.28516 59.9503 5.71875 60.9191 5.3125C61.8956 4.90625 62.9894 4.70312 64.2003 4.70312C65.4191 4.70312 66.505 4.92578 67.4581 5.37109C68.4113 5.80859 69.1495 6.42969 69.673 7.23438C70.2042 8.03906 70.4698 8.95312 70.4698 9.97656H66.9542C66.9542 9.19531 66.7081 8.58984 66.2159 8.16016C65.7238 7.72266 65.0323 7.50391 64.1417 7.50391C63.2823 7.50391 62.6144 7.6875 62.1378 8.05469C61.6613 8.41406 61.423 8.89062 61.423 9.48438C61.423 10.0391 61.7003 10.5039 62.255 10.8789C62.8175 11.2539 63.6417 11.6055 64.7277 11.9336C66.7277 12.5352 68.1847 13.2812 69.0988 14.1719C70.0128 15.0625 70.4698 16.1719 70.4698 17.5C70.4698 18.9766 69.9113 20.1367 68.7941 20.9805C67.6769 21.8164 66.173 22.2344 64.2823 22.2344C62.9698 22.2344 61.7745 21.9961 60.6964 21.5195C59.6183 21.0352 58.7941 20.375 58.2238 19.5391C57.6613 18.7031 57.38 17.7344 57.38 16.6328H60.9073C60.9073 18.5156 62.0323 19.457 64.2823 19.457C65.1183 19.457 65.7706 19.2891 66.2394 18.9531C66.7081 18.6094 66.9425 18.1328 66.9425 17.5234ZM77.0525 6.20312V9.32031H79.2205V11.8047H77.0525V18.1328C77.0525 18.6016 77.1423 18.9375 77.322 19.1406C77.5017 19.3438 77.8455 19.4453 78.3533 19.4453C78.7283 19.4453 79.0603 19.418 79.3494 19.3633V21.9297C78.6853 22.1328 78.0017 22.2344 77.2986 22.2344C74.9236 22.2344 73.7127 21.0352 73.6658 18.6367V11.8047H71.8142V9.32031H73.6658V6.20312H77.0525ZM88.8148 22C88.6586 21.6953 88.5453 21.3164 88.475 20.8633C87.6547 21.7773 86.5883 22.2344 85.2758 22.2344C84.0336 22.2344 83.0023 21.875 82.182 21.1562C81.3695 20.4375 80.9633 19.5312 80.9633 18.4375C80.9633 17.0938 81.4594 16.0625 82.4516 15.3438C83.4516 14.625 84.893 14.2617 86.7758 14.2539H88.3344V13.5273C88.3344 12.9414 88.182 12.4727 87.8773 12.1211C87.5805 11.7695 87.1078 11.5938 86.4594 11.5938C85.8891 11.5938 85.4398 11.7305 85.1117 12.0039C84.7914 12.2773 84.6312 12.6523 84.6312 13.1289H81.2445C81.2445 12.3945 81.4711 11.7148 81.9242 11.0898C82.3773 10.4648 83.018 9.97656 83.8461 9.625C84.6742 9.26562 85.6039 9.08594 86.6352 9.08594C88.1977 9.08594 89.4359 9.48047 90.35 10.2695C91.2719 11.0508 91.7328 12.1523 91.7328 13.5742V19.0703C91.7406 20.2734 91.9086 21.1836 92.2367 21.8008V22H88.8148ZM86.0141 19.6445C86.5141 19.6445 86.975 19.5352 87.3969 19.3164C87.8187 19.0898 88.1312 18.7891 88.3344 18.4141V16.2344H87.0687C85.3734 16.2344 84.4711 16.8203 84.3617 17.9922L84.35 18.1914C84.35 18.6133 84.4984 18.9609 84.7953 19.2344C85.0922 19.5078 85.4984 19.6445 86.0141 19.6445ZM99.9678 19.5039C100.593 19.5039 101.101 19.332 101.491 18.9883C101.882 18.6445 102.085 18.1875 102.101 17.6172H105.276C105.269 18.4766 105.034 19.2656 104.573 19.9844C104.112 20.6953 103.48 21.25 102.675 21.6484C101.878 22.0391 100.995 22.2344 100.026 22.2344C98.2139 22.2344 96.7842 21.6602 95.7373 20.5117C94.6905 19.3555 94.167 17.7617 94.167 15.7305V15.5078C94.167 13.5547 94.6866 11.9961 95.7256 10.832C96.7647 9.66797 98.1905 9.08594 100.003 9.08594C101.589 9.08594 102.858 9.53906 103.812 10.4453C104.772 11.3438 105.261 12.543 105.276 14.043H102.101C102.085 13.3867 101.882 12.8555 101.491 12.4492C101.101 12.0352 100.585 11.8281 99.9444 11.8281C99.1553 11.8281 98.5577 12.1172 98.1514 12.6953C97.753 13.2656 97.5537 14.1953 97.5537 15.4844V15.8359C97.5537 17.1406 97.753 18.0781 98.1514 18.6484C98.5498 19.2188 99.1553 19.5039 99.9678 19.5039ZM112.175 16.9141L110.957 18.1328V22H107.57V4H110.957V13.9727L111.613 13.1289L114.859 9.32031H118.925L114.343 14.6055L119.324 22H115.433L112.175 16.9141Z" fill="#F88B78"/>
<path d="M127.31 22V4.9375H132.56C134.06 4.9375 135.399 5.27734 136.579 5.95703C137.767 6.62891 138.692 7.58984 139.356 8.83984C140.02 10.082 140.353 11.4961 140.353 13.082V13.8672C140.353 15.4531 140.024 16.8633 139.368 18.0977C138.72 19.332 137.802 20.2891 136.614 20.9688C135.427 21.6484 134.087 21.9922 132.595 22H127.31ZM130.825 7.78516V19.1758H132.524C133.899 19.1758 134.95 18.7266 135.677 17.8281C136.403 16.9297 136.774 15.6445 136.79 13.9727V13.0703C136.79 11.3359 136.431 10.0234 135.712 9.13281C134.993 8.23438 133.942 7.78516 132.56 7.78516H130.825ZM148.892 22.2344C147.033 22.2344 145.517 21.6641 144.345 20.5234C143.181 19.3828 142.599 17.8633 142.599 15.9648V15.6367C142.599 14.3633 142.845 13.2266 143.338 12.2266C143.83 11.2188 144.525 10.4453 145.423 9.90625C146.33 9.35938 147.361 9.08594 148.517 9.08594C150.252 9.08594 151.615 9.63281 152.607 10.7266C153.607 11.8203 154.107 13.3711 154.107 15.3789V16.7617H146.033C146.142 17.5898 146.47 18.2539 147.017 18.7539C147.572 19.2539 148.271 19.5039 149.115 19.5039C150.42 19.5039 151.439 19.0312 152.173 18.0859L153.838 19.9492C153.33 20.668 152.642 21.2305 151.775 21.6367C150.908 22.0352 149.947 22.2344 148.892 22.2344ZM148.505 11.8281C147.834 11.8281 147.287 12.0547 146.865 12.5078C146.451 12.9609 146.185 13.6094 146.068 14.4531H150.779V14.1836C150.763 13.4336 150.56 12.8555 150.17 12.4492C149.779 12.0352 149.224 11.8281 148.505 11.8281ZM160.983 17.8633L163.338 9.32031H166.877L162.6 22H159.365L155.088 9.32031H158.627L160.983 17.8633ZM174.409 22.2344C172.55 22.2344 171.034 21.6641 169.862 20.5234C168.698 19.3828 168.116 17.8633 168.116 15.9648V15.6367C168.116 14.3633 168.362 13.2266 168.854 12.2266C169.347 11.2188 170.042 10.4453 170.94 9.90625C171.847 9.35938 172.878 9.08594 174.034 9.08594C175.768 9.08594 177.132 9.63281 178.124 10.7266C179.124 11.8203 179.624 13.3711 179.624 15.3789V16.7617H171.55C171.659 17.5898 171.987 18.2539 172.534 18.7539C173.089 19.2539 173.788 19.5039 174.632 19.5039C175.936 19.5039 176.956 19.0312 177.69 18.0859L179.354 19.9492C178.847 20.668 178.159 21.2305 177.292 21.6367C176.425 22.0352 175.464 22.2344 174.409 22.2344ZM174.022 11.8281C173.35 11.8281 172.804 12.0547 172.382 12.5078C171.968 12.9609 171.702 13.6094 171.585 14.4531H176.296V14.1836C176.28 13.4336 176.077 12.8555 175.686 12.4492C175.296 12.0352 174.741 11.8281 174.022 11.8281ZM185.492 22H182.093V4H185.492V22ZM188.125 15.543C188.125 14.2852 188.367 13.1641 188.852 12.1797C189.336 11.1953 190.031 10.4336 190.938 9.89453C191.852 9.35547 192.91 9.08594 194.113 9.08594C195.824 9.08594 197.219 9.60938 198.297 10.6562C199.383 11.7031 199.988 13.125 200.113 14.9219L200.137 15.7891C200.137 17.7344 199.594 19.2969 198.508 20.4766C197.422 21.6484 195.965 22.2344 194.137 22.2344C192.309 22.2344 190.848 21.6484 189.754 20.4766C188.668 19.3047 188.125 17.7109 188.125 15.6953V15.543ZM191.512 15.7891C191.512 16.9922 191.738 17.9141 192.192 18.5547C192.645 19.1875 193.293 19.5039 194.137 19.5039C194.957 19.5039 195.598 19.1914 196.059 18.5664C196.52 17.9336 196.75 16.9258 196.75 15.543C196.75 14.3633 196.52 13.4492 196.059 12.8008C195.598 12.1523 194.949 11.8281 194.113 11.8281C193.285 11.8281 192.645 12.1523 192.192 12.8008C191.738 13.4414 191.512 14.4375 191.512 15.7891ZM213.997 15.7773C213.997 17.7305 213.552 19.2969 212.661 20.4766C211.778 21.6484 210.583 22.2344 209.075 22.2344C207.794 22.2344 206.759 21.7891 205.97 20.8984V26.875H202.583V9.32031H205.723L205.841 10.5625C206.661 9.57812 207.731 9.08594 209.052 9.08594C210.614 9.08594 211.829 9.66406 212.696 10.8203C213.563 11.9766 213.997 13.5703 213.997 15.6016V15.7773ZM210.61 15.5312C210.61 14.3516 210.399 13.4414 209.977 12.8008C209.563 12.1602 208.958 11.8398 208.161 11.8398C207.098 11.8398 206.368 12.2461 205.97 13.0586V18.25C206.384 19.0859 207.122 19.5039 208.184 19.5039C209.802 19.5039 210.61 18.1797 210.61 15.5312ZM222.302 22.2344C220.443 22.2344 218.927 21.6641 217.755 20.5234C216.591 19.3828 216.009 17.8633 216.009 15.9648V15.6367C216.009 14.3633 216.255 13.2266 216.747 12.2266C217.24 11.2188 217.935 10.4453 218.833 9.90625C219.74 9.35938 220.771 9.08594 221.927 9.08594C223.662 9.08594 225.025 9.63281 226.017 10.7266C227.017 11.8203 227.517 13.3711 227.517 15.3789V16.7617H219.443C219.552 17.5898 219.88 18.2539 220.427 18.7539C220.982 19.2539 221.681 19.5039 222.525 19.5039C223.83 19.5039 224.849 19.0312 225.583 18.0859L227.247 19.9492C226.74 20.668 226.052 21.2305 225.185 21.6367C224.318 22.0352 223.357 22.2344 222.302 22.2344ZM221.915 11.8281C221.244 11.8281 220.697 12.0547 220.275 12.5078C219.861 12.9609 219.595 13.6094 219.478 14.4531H224.189V14.1836C224.173 13.4336 223.97 12.8555 223.58 12.4492C223.189 12.0352 222.634 11.8281 221.915 11.8281ZM236.936 12.4961C236.475 12.4336 236.068 12.4023 235.717 12.4023C234.436 12.4023 233.596 12.8359 233.197 13.7031V22H229.811V9.32031H233.01L233.104 10.832C233.783 9.66797 234.725 9.08594 235.928 9.08594C236.303 9.08594 236.654 9.13672 236.982 9.23828L236.936 12.4961Z" fill="#66ADA8"/>
<path d="M59 53C196.202 53 196.74 53 187.782 53" stroke="#68B0AB" stroke-width="6" stroke-linecap="round"/>
</svg>
