<svg width="659" height="361" viewBox="0 0 659 361" fill="none" xmlns="http://www.w3.org/2000/svg">
<path d="M659 174H278V360H659V174Z" fill="url(#paint0_linear)"/>
<path d="M4 41L221 164" stroke="#68B0AB" stroke-width="8" stroke-linecap="round" stroke-linejoin="round" stroke-dasharray="14 17"/>
<rect width="59.947" height="59.947" transform="matrix(0.884114 0.467271 -0.884114 0.467271 131 121)" fill="#FD9583"/>
<rect width="59.947" height="56.023" transform="matrix(0.884114 -0.467271 2.4066e-08 1 131 177.023)" fill="#C6604D"/>
<rect width="59.9914" height="56.023" transform="matrix(0.884114 0.467271 -2.4066e-08 1 78 149.011)" fill="#FF7E67"/>
<rect width="6.25401" height="6.668" transform="matrix(0.880703 0.47367 -2.36493e-08 1 86.1599 163.951)" fill="#FFEAE6" fill-opacity="0.61"/>
<rect width="6.25401" height="6.668" transform="matrix(0.880703 0.47367 -2.36493e-08 1 86.1599 183.904)" fill="#FFEAE6" fill-opacity="0.61"/>
<rect width="6.25401" height="6.668" transform="matrix(0.880703 0.47367 -2.36493e-08 1 86.1599 173.928)" fill="#FFEAE6" fill-opacity="0.61"/>
<rect width="6.25401" height="6.668" transform="matrix(0.880703 0.47367 -2.36493e-08 1 86.1599 193.881)" fill="#FFEAE6" fill-opacity="0.61"/>
<rect width="28.143" height="6.668" transform="matrix(0.880703 0.47367 -2.36493e-08 1 95.0338 168.227)" fill="#68B0AB"/>
<rect width="28.143" height="6.668" transform="matrix(0.880703 0.47367 -2.36493e-08 1 95.0338 178.203)" fill="#68B0AB"/>
<rect width="28.143" height="6.668" transform="matrix(0.880703 0.47367 -2.36493e-08 1 95.0338 188.18)" fill="#68B0AB"/>
<rect width="28.143" height="6.668" transform="matrix(0.880703 0.47367 -2.36493e-08 1 95.0338 198.157)" fill="#68B0AB"/>
<rect width="180" height="180" transform="matrix(0.866025 0.5 -0.866025 0.5 277.885 0)" fill="#FD9583"/>
<rect width="180" height="180" transform="matrix(0.866025 -0.5 2.20305e-08 1 277.885 180)" fill="#C6604D"/>
<rect width="180.133" height="180" transform="matrix(0.866025 0.5 -2.20305e-08 1 122 90)" fill="#FF7E67"/>
<rect width="18.7891" height="21.4241" transform="matrix(0.862202 0.506564 -2.1649e-08 1 146 138)" fill="#FFEAE6" fill-opacity="0.61"/>
<rect width="18.7891" height="21.4241" transform="matrix(0.862202 0.506564 -2.1649e-08 1 146 202.11)" fill="#FFEAE6" fill-opacity="0.61"/>
<rect width="18.7891" height="21.4241" transform="matrix(0.862202 0.506564 -2.1649e-08 1 146 170.055)" fill="#FFEAE6" fill-opacity="0.61"/>
<rect width="18.7891" height="21.4241" transform="matrix(0.862202 0.506564 -2.1649e-08 1 146 234.165)" fill="#FFEAE6" fill-opacity="0.61"/>
<rect width="84.5509" height="21.4241" transform="matrix(0.862202 0.506564 -2.1649e-08 1 172.1 151.738)" fill="#68B0AB"/>
<rect width="84.5509" height="21.4241" transform="matrix(0.862202 0.506564 -2.1649e-08 1 172.1 183.793)" fill="#68B0AB"/>
<rect width="84.5509" height="21.4241" transform="matrix(0.862202 0.506564 -2.1649e-08 1 172.1 215.848)" fill="#68B0AB"/>
<rect width="84.5509" height="21.4241" transform="matrix(0.862202 0.506564 -2.1649e-08 1 172.1 247.903)" fill="#68B0AB"/>
<rect width="53.374" height="13.5243" transform="matrix(0.866025 -0.5 2.20305e-08 1 366 156.637)" fill="#68B0AB"/>
<circle r="41.5692" transform="matrix(0.866025 -0.5 2.20305e-08 1 356 233.354)" fill="#FFEAE6" fill-opacity="0.61"/>
<path d="M343.5 226.5L545 340.5" stroke="#68B0AB" stroke-width="8" stroke-linecap="round" stroke-linejoin="round" stroke-dasharray="14 17"/>
<defs>
<linearGradient id="paint0_linear" x1="88.8804" y1="115.5" x2="460.943" y2="259.397" gradientUnits="userSpaceOnUse">
<stop offset="0.34375" stop-color="#C4C4C4"/>
<stop offset="0.505208" stop-color="#C4C4C4" stop-opacity="0.431443"/>
<stop offset="0.765625" stop-color="#C4C4C4" stop-opacity="0.1"/>
<stop offset="1" stop-color="#C4C4C4" stop-opacity="0"/>
</linearGradient>
</defs>
</svg>
